<?xml version="1.0" encoding="UTF-8"?>
<!DOCTYPE svg PUBLIC "-//W3C//DTD SVG 1.1//EN" "http://www.w3.org/Graphics/SVG/1.1/DTD/svg11.dtd">
<!-- Creator: CorelDRAW 2020 (64-Bit) -->
<svg xmlns="http://www.w3.org/2000/svg" xml:space="preserve" width="265.98mm" height="79.8899mm" version="1.1" style="shape-rendering:geometricPrecision; text-rendering:geometricPrecision; image-rendering:optimizeQuality; fill-rule:evenodd; clip-rule:evenodd"
viewBox="0 0 26487.12 7955.7"
 xmlns:xlink="http://www.w3.org/1999/xlink"
 xmlns:xodm="http://www.corel.com/coreldraw/odm/2003">
 <defs>
  <style type="text/css">
   <![CDATA[
    .str0 {stroke:#2B2A29;stroke-width:219.56;stroke-miterlimit:2.61313}
    .str1 {stroke:#2B2A29;stroke-width:49.1;stroke-miterlimit:2.61313}
    .fil4 {fill:none}
    .fil0 {fill:#FEFEFE}
    .fil6 {fill:#2B2A29}
    .fil1 {fill:#FEE8C0}
    .fil7 {fill:#FECC00}
    .fil5 {fill:#006CB5}
    .fil8 {fill:#264796}
    .fil9 {fill:#FEFEFE;fill-rule:nonzero}
    .fil3 {fill:#2B2A29;fill-rule:nonzero}
    .fil10 {fill:#2B2A29;fill-rule:nonzero}
    .fil2 {fill:#264796;fill-rule:nonzero}
   ]]>
  </style>
 </defs>
 <g id="Layer_x0020_1">
  <metadata id="CorelCorpID_0Corel-Layer"/>
  <g id="_1682158303872">
   <polygon class="fil0" points="24787.39,130.27 109.78,130.27 109.78,7845.92 24787.39,7845.92 "/>
   <polygon class="fil1" points="109.78,7845.83 8866.35,7845.83 8866.35,130.2 109.78,130.2 "/>
   <path class="fil2" d="M13124.64 4076.58l-1291.3 0 -201.28 -545.04 -469.56 0 -201.26 545.04 -1291.33 0 1727.27 -3530.45 1727.44 3530.45zm-1546.99 -1337.58c0,-47.46 -18.23,-89.45 -54.49,-125.79 -36.46,-36.27 -78.33,-54.49 -125.96,-54.49 -47.43,0 -89.34,18.22 -125.76,54.49 -36.29,36.35 -54.35,78.33 -54.35,125.79 0,47.51 18.06,89.5 54.35,125.76 36.43,36.46 78.33,54.52 125.76,54.52 47.63,0 89.51,-18.06 125.96,-54.52 36.26,-36.27 54.49,-78.25 54.49,-125.76zm3907.55 264.22l-251.56 1073.36 -1995.72 0 0 -3186.64 1257.81 0 0 2113.28 989.47 0zm2515.63 0l-251.56 1073.36 -1995.72 0 0 -3186.64 1257.84 0 0 2113.28 989.44 0zm2725.32 0l-285.14 1073.36 -2171.9 0 0 -3186.64 2171.9 0 285.14 1073.36 -1199.2 0c-50.23,0 -72.56,22.42 -67.01,67.09 5.62,39.14 27.86,58.7 67.01,58.7l712.79 0 0 788.33 -712.79 0c-44.67,0 -67.01,20.94 -67.01,62.9 0,41.82 22.34,62.9 67.01,62.9l1199.2 0zm3085.94 1400.32l-1475.96 -1165.54 0 838.58 -1266.21 0 0 -3379.43 1484.26 1031.37 0 -838.58 1257.92 0 0 3513.6z"/>
   <path class="fil3" d="M10213.76 4972.42c-7.03,-63.52 -28.02,-105.76 -62.9,-126.42 -34.92,-20.83 -69.93,-31.2 -105.18,-31.2 -63.69,0 -109.31,26.77 -137.1,80.13 -27.8,53.48 -41.77,118.97 -41.77,196.6 0,173.09 61.88,261 185.43,263.6 92.67,0 147.02,-54.33 162.93,-162.91l300.52 0c-12.35,117.37 -57.97,212.83 -137.05,286.1 -79.04,73.18 -184.31,109.86 -315.87,109.86 -102.42,0 -192.25,-20.12 -269.46,-60.22 -77.15,-40.15 -136.24,-97.4 -176.8,-171.47 -40.62,-74.22 -61.69,-162.54 -63.52,-264.96 0,-114.68 24.08,-210.69 72.25,-287.91 48.01,-77.24 108.99,-134.11 182.65,-170.16 73.76,-36.18 148.53,-53.45 224.48,-51.7 169.5,3.57 288.06,42.59 355.56,117.23 67.58,74.61 108.36,165.7 122.54,273.43l-296.72 0zm697.82 -365.55l317.95 0 341.61 954.84 -311.2 0 -38.43 -127.13 -309.93 0 -36.98 127.13 -304.66 0 341.63 -954.84zm58.3 629.07l197.39 0 -100.67 -341.63 -96.73 341.63zm1006.5 -406.5l0 189.32 131.02 0c97.1,0 143.99,-30.9 140.43,-92.59 0,-30.98 -11.5,-54.9 -34.47,-71.63 -22.96,-16.69 -52.02,-25.09 -87.36,-25.09l-149.62 0zm-312.56 -222.57l462.19 0c165.07,0 275.02,24.08 329.75,72.23 54.72,48.09 82.06,114.54 82.06,199.31 0,64.45 -14.81,116.02 -44.36,154.99 -29.53,38.82 -68.12,64.87 -115.89,78.03 59.17,23.04 100.67,48.56 124.54,76.83 23.75,28.27 35.71,87.44 35.71,177.41l0 74.23c0,62.65 11.08,94.1 33.09,94.1l0 27.72 -315.16 0c-8.87,-30.9 -13.85,-75.48 -15.19,-133.78 -1.29,-58.22 -5.1,-101.08 -11.25,-128.47 -6.18,-27.32 -22.5,-45.88 -49.04,-55.54 -32.62,-10.59 -85.23,-15.9 -157.62,-15.9l-46.26 0 0 333.69 -312.56 0 0 -954.84zm1048.8 0l778.62 0 0 222.57 -464.8 0 0 137.67 391.99 0 0 222.49 -391.99 0 0 149.62 483.41 0 0 222.49 -797.23 0 0 -954.84zm957.45 0l778.53 0 0 222.57 -464.8 0 0 137.67 392.02 0 0 222.49 -392.02 0 0 149.62 483.49 0 0 222.49 -797.22 0 0 -954.84zm1250.06 222.57l0 189.32 131.1 0c97.1,0 143.91,-30.9 140.35,-92.59 0,-30.98 -11.5,-54.9 -34.46,-71.63 -22.88,-16.69 -52.12,-25.09 -87.36,-25.09l-149.63 0zm-312.53 -222.57l462.17 0c165.15,0 275.01,24.08 329.75,72.23 54.73,48.09 82.14,114.54 82.14,199.31 0,64.45 -14.81,116.02 -44.37,154.99 -29.61,38.82 -68.25,64.87 -115.96,78.03 59.26,23.04 100.7,48.56 124.54,76.83 23.84,28.27 35.8,87.44 35.8,177.41l0 74.23c0,62.65 10.91,94.1 33.03,94.1l0 27.72 -315.19 0c-8.78,-30.9 -13.85,-75.48 -15.28,-133.78 -1.18,-58.22 -4.98,-101.08 -11.16,-128.47 -6.18,-27.32 -22.5,-45.88 -48.97,-55.54 -32.78,-10.59 -85.22,-15.9 -157.62,-15.9l-46.34 0 0 333.69 -312.53 0 0 -954.84zm1488.47 0l313.83 0 0 954.84 -313.83 0 0 -954.84zm504.54 0l295.28 0 339 520.46 -10.54 -211.87 0 -308.59 300.52 0 0 954.84 -295.26 0 -339.03 -520.46 10.63 217.18 0 303.28 -300.6 0 0 -954.84zm1600.96 276.76c-8.02,-54.74 -50.77,-82 -128.39,-82 -61.88,0 -94.13,17.1 -96.73,51.56 -0.96,21.23 9.42,38.89 31.12,53.07 21.62,14.09 50.56,25.75 86.74,35 36.21,9.36 71.05,17.91 104.63,25.84 112.16,26.52 194.63,62.24 247.69,107.31 52.91,45 78.97,107.26 78,186.61 0,77.78 -20.66,141.09 -62.1,190.19 -41.58,48.94 -96.07,83.97 -163.56,105.26 -67.64,21.08 -140.19,31.7 -217.9,31.7 -116.51,0 -215.2,-29.73 -296,-89.37 -80.79,-59.55 -123.79,-137.1 -129.1,-232.4l300.6 0c7.03,37.94 25.34,64.4 54.96,79.38 29.62,15.14 60.27,22.67 92.04,22.67 76.83,-3.59 117.47,-25.29 121.82,-65.04 3.56,-27.26 -10.38,-48.33 -41.74,-62.9 -31.29,-14.5 -79.63,-29.7 -144.95,-45.62 -82.14,-20.29 -147.41,-41.11 -195.97,-62.27 -48.56,-21.21 -88.57,-52.66 -119.93,-94.64 -31.29,-41.98 -46.57,-97.35 -45.63,-166.18 1.83,-85.7 39.46,-155.41 113.2,-209.27 73.65,-53.86 174.57,-80.77 302.66,-80.77 67.88,0 130.35,9.5 187.32,28.41 56.87,19.11 105.26,51.19 145.03,96.73 39.76,45.38 64.4,104.39 74.14,176.73l-297.97 0zm409.18 -276.76l874.05 0 0 251.64 -279.44 0 0 703.21 -312.48 0 0 -703.21 -282.13 0 0 -251.64zm1017.03 0l313.91 0 0 954.84 -313.91 0 0 -954.84zm455.51 0l874.05 0 0 251.64 -279.45 0 0 703.21 -312.45 0 0 -703.21 -282.15 0 0 -251.64zm1009.04 0l313.91 0 0 574.81c0,59.09 11,102.64 33.09,130.44 22.03,27.72 59.09,41.2 111.22,40.4 53.84,0 91.89,-14.1 113.97,-42.37 21.95,-28.27 33.03,-71.13 33.03,-128.47l0 -574.81 313.83 0 0 542.96c0,154.53 -38.65,266.23 -115.89,335.06 -77.16,68.84 -191.37,103.3 -342.26,103.3 -151.93,0 -266.61,-33.91 -344.32,-101.95 -77.62,-68.05 -116.59,-180.04 -116.59,-336.4l0 -542.96zm1050.13 0l874.08 0 0 251.64 -279.39 0 0 703.21 -312.54 0 0 -703.21 -282.15 0 0 -251.64zm1017.11 0l778.53 0 0 222.57 -464.8 0 0 137.67 392.02 0 0 222.49 -392.02 0 0 149.62 483.33 0 0 222.49 -797.06 0 0 -954.84z"/>
   <polygon class="fil4 str0" points="24787.39,130.27 109.78,130.27 109.78,7845.92 24787.39,7845.92 "/>
   <path class="fil5 str1" d="M4761.25 4238.8c1045.25,0 1897.18,-341.55 1897.18,-760.42 0,-419 -851.94,-760.38 -1897.18,-760.38 -1045.15,0 -1897.11,341.38 -1897.11,760.38 0,418.87 851.96,760.42 1897.11,760.42zm0 380.11c1568.73,0 2845.87,-511.84 2845.87,-1140.53 0,-628.02 -1277.15,-1140.58 -2845.87,-1140.58 -1566.86,0 -2845.77,512.56 -2845.77,1140.58 0,628.69 1278.91,1140.53 2845.77,1140.53z"/>
   <path class="fil0" d="M2919.75 3863.09l88.62 61.64 -472.37 155.71 -72.39 -50.78 90.42 -23.51 -48.77 -34.46 -101.47 16.39 -66.94 -48.88 582.89 -76.12zm-315 94.19l32.62 21.78 244.36 -67.08 -1.83 -1.75 -275.15 47.05zm535.82 39.84l88.74 41.66 -374.75 123.08 97.74 45.33 -88.71 30.73 -184.55 -86.99 461.53 -153.82zm278.82 114.05l106.84 34.38 -307.79 150.26 117.72 36.21 -72.4 36.27 -224.57 -72.48 380.2 -184.64zm342.17 94.1l267.9 59.72 -57.83 41.69 -148.51 -34.3 -57.98 41.5 130.36 28.98 -56.08 39.85 -130.36 -28.9 -65.2 47.04 153.91 32.54 -56.16 41.66 -273.35 -61.52 293.29 -208.26zm349.41 67.11l146.62 12.68 36.19 146.54 1.91 0 74.12 -137.58 130.38 10.91 -124.92 233.52 -148.42 -12.71 -32.57 -152.06 0 0 -77.86 142.98 -130.36 -10.86 124.92 -233.41zm1011.94 132.12l182.91 -10.86 50.61 130.3 -121.27 7.28 -7.2 -18.14 -1.75 0c-14.56,16.25 -45.3,25.37 -88.71,28.93l-10.91 0c-43.41,3.64 -77.87,-1.75 -101.41,-12.68 -21.79,-10.77 -39.82,-25.25 -47.05,-43.41l-45.21 -115.8c-5.48,-12.68 -1.92,-23.62 7.2,-34.46 10.86,-10.87 30.73,-19.9 54.32,-27.1 23.54,-5.48 54.27,-10.92 81.51,-12.76l10.78 0c56.16,-3.56 103.13,-1.8 135.83,5.39 32.49,7.37 54.25,21.79 61.47,39.93l10.92 28.99 -132.2 7.2 -10.83 -25.34c-3.58,-12.68 -19.9,-16.31 -48.89,-14.56 -14.42,0 -27.1,3.71 -30.73,7.36 -5.48,3.56 -7.29,9.03 -5.48,14.4l48.89 123.18c5.39,10.75 21.78,16.23 48.88,14.4 28.99,-1.72 41.58,-9.11 38.1,-19.87l-12.84 -30.82 -50.61 3.63 -16.34 -45.21zm253.56 -126.83l153.82 -25.34c65.2,-10.84 114.07,-14.4 141.23,-10.84 16.25,1.89 36.21,5.48 48.89,10.84 14.42,3.71 28.98,12.67 41.66,25.34l1.75 1.91c14.47,12.68 21.78,25.34 18.11,34.3 -1.8,9.11 -16.31,20.04 -43.38,28.98 25.26,-1.72 47.04,0 66.92,3.64 18.14,1.83 32.54,9.03 41.66,18.14l52.52 50.61c16.23,16.34 32.54,25.42 45.21,29.01l-128.55 20.04c-10.83,-1.91 -27.15,-10.94 -41.58,-27.26l-48.86 -47.05c-12.7,-12.67 -34.46,-16.31 -63.46,-12.67l-30.71 5.39 97.74 95.99 -126.75 19.9 -226.21 -220.93zm164.68 16.34l52.5 50.77 39.76 -5.48c10.94,-1.88 18.14,-5.39 20.04,-10.83 1.75,-5.48 0,-10.95 -5.45,-16.34l-10.86 -10.92c-5.45,-5.39 -16.39,-10.78 -27.24,-12.59 -10.78,-1.83 -27.1,-1.83 -41.69,0l-27.07 5.4zm345.81 -32.57c-30.9,-16.31 -43.49,-34.38 -38.09,-50.69 3.71,-16.23 28.98,-32.54 72.39,-45.22l7.28 -1.91c19.99,-7.2 39.85,-10.75 61.64,-12.68 21.62,-3.56 45.13,-3.56 65.2,-3.56 45.13,1.81 86.79,10.92 119.35,28.99l170.22 88.62c27.1,14.59 38.01,30.82 34.38,48.89 -7.28,18.14 -30.82,34.46 -72.48,45.3l-7.2 3.66c-21.62,5.45 -47.04,10.83 -68.75,14.48 -23.53,1.75 -50.72,3.63 -72.39,0 -41.69,-3.64 -76.06,-14.48 -101.41,-27.1l-170.14 -88.79zm162.94 -57.89c-7.28,-3.72 -16.31,-5.48 -25.42,-7.31 -12.68,-1.72 -21.63,-1.72 -30.74,1.83l-5.48 0c-19.87,7.2 -19.87,14.51 -1.8,23.54l191.92 101.38c5.48,3.64 16.31,7.2 25.34,7.2 9.11,1.83 21.79,0 30.73,-1.72l5.48 -1.83c9.09,-3.64 14.56,-7.28 10.84,-10.86 -1.75,-5.45 -7.2,-10.84 -14.43,-14.57l-186.44 -97.65zm220.74 -148.54l345.84 119.55c21.76,7.2 41.66,7.2 57.97,0l3.57 -1.83c9.11,-5.47 12.67,-9.11 9.11,-12.67 -7.2,-3.64 -14.51,-9.12 -28.99,-12.68l-336.73 -115.89 94.19 -41.66 334.81 114.05c36.21,12.76 56.24,28.99 58,47.04 3.64,16.32 -9.11,32.71 -39.85,47.13l-14.42 7.2c-30.79,14.59 -68.89,21.79 -114.05,23.54 -43.49,1.88 -85.06,-3.57 -121.27,-16.23l-338.62 -115.89 90.46 -41.69zm226.37 -104.93l83.26 -56.16c14.51,-10.75 30.82,-19.87 47.13,-27.18 14.42,-7.2 32.54,-12.59 48.88,-16.31 21.76,-3.57 47.05,-3.57 72.4,-1.72 25.34,1.72 54.33,7.19 85.06,14.39l7.2 0c52.52,12.68 86.98,27.27 97.82,41.69 10.78,12.68 7.22,27.16 -14.48,43.55l-41.69 27.1 206.43 47.04 -68.84 47.13 -523.17 -119.52zm159.37 -25.34l132.12 30.81 18.14 -14.58c8.95,-5.48 10.78,-12.68 1.75,-16.23 -9.11,-5.4 -23.54,-10.86 -45.32,-14.51 -41.66,-10.92 -72.4,-9.03 -90.46,3.64l-16.23 10.86z"/>
   <path class="fil6" d="M3952.14 3690.29l0 0 0 0c4.59,34.92 -11.39,53.7 -79.21,61.3 -50.45,6.24 -102.34,-4.84 -157.71,-31.61 -36.26,-12.76 -74.03,-42.95 -95.82,-91.64 2.85,34.6 -6.43,86.71 -50.64,143.45 -12.81,36.43 -25.42,72.69 -23.92,88.21 1.45,17.35 4.6,34.94 23.7,49.04 0,0 18.92,14.09 18.92,14.09 1.5,17.44 -30,37.77 -64.95,42.45 -15.53,1.5 -39.44,-45.62 -50.37,-131.02 0,0 12.6,-34.51 46.18,-56.54 40.86,-74.28 66.12,-145.11 59.8,-195.64 0,0 -26.77,55.37 -71.05,112.08 -61.46,58.14 -107.09,97.52 -142.1,102.09 -83.56,11.11 -138.6,-17.58 -146.46,-83.48 -6.24,-50.52 71.05,-112.08 214.82,-198.73 -440.08,37.38 -829.63,68.42 -1134.33,105.67 -184.18,21.79 -320.09,38.98 -402.07,65.5 -82.22,28.61 -195.55,75.57 -342.59,144.58 -64.54,25.17 -96.32,47.51 -113.72,48.86 -17.27,1.33 -39.3,-45.63 -67.82,-127.77 -45.38,-97.98 -71.98,-179.88 -81.51,-248 -7.58,-67.79 16.26,-156.03 71.63,-264.55 53.62,-110.66 113.8,-186.14 164.27,-192.38 17.35,-1.36 69.13,9.75 157.7,31.67 192.31,28.99 834.04,103.93 1873.35,198.52 31.5,-20.36 63.2,-42.62 80.63,-44.07 33.01,-4.82 86.79,6.51 107.07,38.04l50.47 -6.35c-296,-186.52 -570.38,-324.27 -821.06,-412.89 -268.15,-87.23 -460.19,-131.41 -596.15,-114.22 -67.8,7.59 -181.46,56.47 -307.63,139.79l-41.19 -45.85c304.86,-174.51 442.37,-311.61 436.13,-362.07l-626 -213.84 -12.51 -100.84 2294.4 -694.12 2316.28 453.32 12.62 101 -258.78 118.1 -4.85 102.25c36.3,12.76 70.83,25.18 70.83,25.18 54.63,438.73 112.3,774.89 175.03,1006.82 11.08,83.48 36.13,149.93 58.08,196.9 25.03,66.46 47.35,98.24 66.29,112.33 20.36,31.53 39.14,47.51 93.06,57.01 15.54,-1.64 32.87,-3.01 51.81,11.11l-224.33 130.44c-50.44,6.32 -88.07,-23.76 -125.84,-53.86 -39.39,-45.63 -62.98,-94.72 -74.14,-178.2 -24.97,-66.48 -52.99,-165.73 -69,-282.4 -78,-367.6 -134.25,-686.41 -170.13,-973.69 0,0 17.27,-1.42 48.72,-21.7l-12.46 -101 -424.61 171.09c25.34,64.62 100.75,124.83 244.36,175.44l-26.93 55.37c-17.36,1.34 -34.7,2.68 -50.39,6.26 -50.53,6.32 -101,12.43 -135.75,15.28 -673.52,84.6 -1145.59,294.83 -1425.12,655.99 219.39,-28.27 438.57,-54.73 657.83,-81.09 165.54,-37.8 351.93,-61.22 503.27,-79.93 67.8,-7.69 138.71,17.58 212.75,60.36 75.65,58.38 118.27,121.57 125.87,189.37 17.19,135.95 -6.65,224.16 -36.76,261.79 -30.1,37.79 -94.64,62.98 -178.28,74.14 -67.8,7.61 -171.89,2.6 -312.24,-30.48 21.79,184.14 15.28,271.04 -0.16,272.71 0,0 0,0 -18.94,-14.18 -181.05,-218.08 -625.72,-351.12 -1332.57,-383.69 41.25,45.87 62.95,94.59 74.2,178.23z"/>
   <path class="fil0" d="M3670.17 3484.74l-31.78 22.17c2.94,32.87 43.96,80.63 82.01,108.82 39.11,47.46 94.47,74.31 127.52,69.41 34.75,-2.71 31.53,-20.29 30.15,-37.63 -4.98,-33.2 -26.68,-81.98 -64.7,-110.27 -56.71,-44.13 -110.41,-55.51 -143.2,-52.5z"/>
   <path class="fil0" d="M3553.25 3515.94c-33.17,4.9 -82.22,28.6 -127.85,67.88 -63.2,42.62 -93.22,80.41 -91.88,97.74 4.92,33.12 23.84,47.21 41.19,45.87 33.12,-4.92 93.39,-80.38 181.79,-193.83l-3.26 -17.66z"/>
   <path class="fil0" d="M5306.04 3148.26c-17.41,1.34 -133.84,15.44 -369.24,62.57 -234.7,28.05 -421.08,51.35 -539.34,65.28 -50.53,6.26 -151.36,18.77 -290.05,1.18 -137.29,-0.22 -222.73,10.62 -273.2,16.97 -15.44,1.64 -33.04,4.9 -67.8,7.58 -15.76,3.51 -33.2,4.85 -33.2,4.85 -17.27,1.42 -33.01,4.9 -51.78,-11.08 0,0 0,0 0,0 -17.6,3.26 -34.95,4.68 -49.04,23.59 -14.18,19.1 -30.16,37.79 -26.94,55.37 4.44,50.22 25.34,64.56 40.81,63.06 0,0 17.58,-3.26 17.58,-3.26 0,0 17.43,-1.5 17.43,-1.5 83.56,-11.08 135.37,0 157.63,31.7 289.98,-1.13 565.95,16.61 848.07,84.89 280.87,50.94 444.76,133.07 492.03,231.22 -29.7,-236.75 -30.87,-391.44 -23.04,-460.9 25.26,-70.83 69.54,-127.55 150.09,-171.5z"/>
   <path class="fil0" d="M5693.7 3374.38c-7.61,-67.79 -32.87,-132.33 -73.76,-180.12 -56.71,-44.25 -112.08,-71.02 -162.61,-64.79 -83.34,9.28 -163.88,53.16 -189.31,125.96 -39.28,89.79 -63.21,178.04 -49.27,296.3 4.6,34.92 75.4,60.13 181.24,80.8 -56.7,-44.21 -81.92,-108.82 -95.85,-227.09 -6.26,-50.47 6.49,-86.82 33.34,-142.19 30.1,-37.69 79.13,-61.31 112,-64.4 33.19,-4.82 86.82,6.51 124.53,36.68 55.37,26.77 75.7,58.21 80.63,91.41 15.27,135.59 -27.56,209.74 -110.91,218.93 -33.03,4.9 -52.11,-9.19 -88.37,-21.87 -22.37,-31.83 -41.06,-47.76 -44.07,-80.55 -4.57,-35.08 11.41,-53.77 23.86,-88.24 12.73,-36.43 28.27,-38.01 45.85,-41.27 32.78,-3.01 51.89,11.08 61.39,79.21 1.58,15.52 2.93,32.78 2.93,32.78 -15.68,3.58 -18.94,-14.01 -18.94,-14.01 -18.75,-15.98 -20.42,-31.53 -37.77,-30.16 -15.53,1.73 -31.37,20.42 -26.77,55.35 6.24,50.47 25.17,64.56 75.65,58.3 50.52,-6.24 80.54,-43.96 69.46,-127.52 -4.6,-34.92 -7.61,-67.8 -45.41,-97.98 -38.01,-28.11 -74.28,-40.87 -107.15,-37.85 -34.92,4.59 -66.45,25.02 -96.56,62.65 -12.68,36.43 -25.42,72.72 -19.16,123.16 9.5,68.11 31.5,115.09 88.24,159.28 37.6,30.11 92.97,56.88 143.2,52.53 50.44,-6.18 99.48,-29.87 112.32,-66.24 30.08,-37.68 22.5,-105.48 11.25,-189.07z"/>
   <path class="fil0" d="M3528.16 3314.11l0 0 0 0c-1053.46,-75.56 -1712.47,-149.14 -2007.46,-181.07 0,0 -30,37.71 -85.61,148.2 -39.28,89.75 -63.21,177.99 -56.88,228.43 12.46,101 42.37,200.48 103.68,279.69 208.34,-111.83 471.7,-194.92 826.87,-238.5 151.36,-18.85 405.29,-34.6 728.64,-55.84 220.9,-10.99 389.69,-31.12 490.52,-43.65 -18.94,-14.1 -20.29,-31.37 -25.18,-64.54 -1.33,-17.36 12.76,-36.38 25.43,-72.73z"/>
   <polygon class="fil0" points="6068.04,2095.83 6061.68,2045.36 3977.02,2780.27 1935.29,2191.99 1940.11,2225.16 3969.11,2849.74 "/>
   <polygon class="fil0" points="6296.63,1492.25 6290.37,1441.81 6161.26,1492.25 6164.28,1525.12 "/>
   <path class="fil7" d="M4100.51 1548.49l-1964.85 601.12 1861.88 524.81 1841.74 -620.28 -1513.98 -69.76c-53.71,-11.33 -105.51,-22.42 -141.95,-35.17 -31.69,22.17 -63.2,42.61 -113.58,48.86 -85.39,10.86 -137.34,-0.22 -142.1,-33.34 -2.85,-34.7 9.58,-69.21 41.44,-91.41 31.36,-20.33 62.87,-40.79 113.34,-47.05 68.12,-9.41 105.81,20.61 127.52,69.47 36.46,12.75 86.82,6.51 156.37,14.34l1771.31 56.32 31.45 -20.36 -2068.57 -397.55z"/>
   <path class="fil3" d="M1091.48 6081.55l0 -47.76c63.82,-69.13 118.56,-134.09 164.9,-195.17 46.04,-60.97 82.71,-109.37 109.48,-145.33 26.77,-35.88 50.52,-61.31 71.05,-76.12 20.49,-14.67 46.01,-22.19 77.05,-22.19 15.46,0 23.06,5.88 23.06,17.68 0,9.66 -6.26,23.76 -18.6,42.45 -12.63,18.61 -28.69,37.71 -48.26,57.26 -25.81,25.67 -51.24,57.5 -75.95,95.93 -24.96,38.48 -53.07,87.6 -84.27,147.24 24.39,-19.02 52.82,-41.82 84.74,-68.04 32.16,-26.06 58.22,-46.59 78.49,-61.39 20.29,-14.73 40.32,-26.39 60.05,-35.09 19.88,-8.53 39.69,-12.92 59.64,-12.92 12.92,0 21.3,2.3 24.94,6.73 3.97,4.68 5.89,13.55 5.89,26.55 0,34.68 -8.4,68.51 -25.12,101.38 -17.11,33.04 -41.03,67.25 -72.56,102.67 -31.12,35.39 -69.77,74.06 -115.89,116.01 16.01,5.73 32.32,8.81 49.12,8.81 52.91,0 123.41,-40.31 212.12,-120.72l0 49.18c-34.38,30.82 -68.2,59.89 -101.33,87.23 -32.79,27.4 -63.99,49.18 -93.06,65.59 -29.23,16.31 -56,24.47 -80.38,24.47 -9.11,0 -18.85,-0.97 -29.15,-3.02 -10.24,-2.13 -19.49,-4.59 -28.21,-7.44 -8.54,-3.02 -19.71,-7.2 -33.51,-12.84 -13.46,-5.37 -24,-9.34 -31.44,-11.39 -14.4,3.57 -22.64,5.37 -24.48,5.37 -15.84,0 -34.7,-6.24 -55.92,-19.08 -15.13,29.07 -31.69,66.84 -49.59,112.96 -17.9,46.18 -33.03,82.93 -45.38,110.17 -12.12,27.26 -28.68,53.31 -49.18,78.49 -11.16,11.41 -19.4,16.97 -23.75,16.97 -19.57,0 -29.32,-17.19 -29.32,-51.89 0,-29.86 6.1,-61.22 18.14,-93.63 11.88,-32.71 26.77,-63.44 44.18,-92.51 17.52,-29.07 36.85,-58.68 57.84,-88.54 20.66,-29.78 35.63,-51.89 44.21,-66.32 71.98,-123.7 127.92,-228.97 167.99,-315.79 -104.55,127.3 -183.76,218.68 -237.54,274.05zm277.14 33.58c44.92,-47.34 78.5,-87.58 100.59,-120.86 22.2,-33.11 33.03,-58.67 33.03,-76.44 0,-16.78 -8.32,-25.18 -25.09,-25.18 -22.82,0 -54.74,18.94 -95.93,56.41 -41.28,37.44 -83.65,87.99 -127.22,151.6 33.58,-3.42 56.16,-4.92 67.58,-3.71 11.16,1.25 27.02,7.19 47.04,18.19zm377.98 -212.82c69.3,-63.04 136.25,-109.62 201.36,-140.02 64.95,-30.57 115.23,-45.71 150.65,-45.71 9.49,0 18.36,3.94 26.77,11.88 8.16,7.83 14.67,17.27 19.4,27.72 4.76,10.54 7.23,18.19 7.23,23.04 0,8.4 -3.43,14.42 -9.66,18.22 -6.27,3.94 -17.44,8.54 -33.53,13.93 3.26,7.2 7.44,16.48 12.37,27.89 5.15,11.38 8.78,20.83 11.63,27.69 2.85,7.06 3.97,13.33 3.97,18.78 0,10.86 -11,31.36 -33.04,61.22 -21.87,29.81 -37.63,51.64 -46.42,65.67 -8.86,14.2 -13.21,31.44 -13.21,51.97 0,33.58 15.35,50.52 46.34,50.52 31.91,0 81.75,-29.86 149.54,-89.5l0 41.74c-115.09,127.69 -197.55,191.7 -247.21,191.7 -17.68,0 -30.18,-5.86 -37.96,-17.43 -7.44,-11.63 -11.16,-28.69 -11.16,-51.48 0,-35.88 13.09,-88.16 38.89,-156.37 -66.37,73.6 -115.72,126.34 -147.87,157.32 -32.38,31.12 -58.85,46.72 -79.93,46.72 -10.05,0 -22.58,-8.54 -37.46,-25.81 -14.98,-17.52 -28.44,-39.77 -39.82,-67.33 -11.66,-27.48 -17.52,-56.16 -17.52,-85.48 0,-21.45 2.13,-39.43 6.1,-53.54 4.18,-14.5 12.12,-29.06 23.92,-44.04 11.96,-15.22 30.81,-35 56.62,-59.33zm326.82 -75.25c-118.27,53.94 -202.61,100.12 -252.76,137.81 -50.3,37.71 -75.4,76.69 -75.4,116.67 0,14.75 2.55,26.55 7.45,35.88 5.06,9.28 11.88,14.01 20.52,14.01 5.07,0 14.02,-3.23 26.53,-9.58 47.67,-28.18 91.55,-64.95 131.1,-110.16 39.65,-45.38 87.2,-106.93 142.56,-184.64zm399.93 -156.82l29.37 0c24.17,-43.33 45.79,-73.82 65.36,-91.81 19.71,-17.9 41.99,-27.01 66.92,-27.01 25.18,0 37.8,5.86 37.8,17.02 0,5.62 -9.91,20.21 -29.32,44.5 -19.73,23.92 -34.54,44.28 -44.61,60.77 15.63,1.58 29.4,3.26 41.2,4.68 12.21,1.42 21.7,2.6 28.52,3.48 -25.89,48.17 -58.52,97.6 -97.66,147.88 -12.75,-0.94 -23.53,-1.59 -32.08,-2.3 -8.64,-0.72 -17.27,-1.34 -26.38,-2.05 -8.79,-0.8 -19.57,-1.51 -32.41,-2.3 -24.47,39.51 -45.13,74.86 -61.68,106.14 -16.56,30.98 -29.32,59.56 -38.19,85.56 -8.86,26.05 -13.29,50.52 -13.29,73.73 0,31.53 12.59,47.13 37.46,47.13 17.28,0 40.07,-9.36 68.12,-27.81 27.94,-18.36 65.17,-46.5 112.3,-84.74l0 45.6c-123.08,133.32 -213.71,199.93 -272.38,199.93 -20.53,0 -37.06,-7.94 -49.43,-24 -12.51,-15.93 -18.77,-36.27 -18.77,-61.31 0,-16.72 3.42,-36.76 10.45,-60.05 7.23,-23.04 19.74,-58.22 37.94,-105.1 -6.24,5.56 -12.35,10.78 -18.2,16.15 -5.56,5.09 -10.86,9.91 -15.6,14.12 -4.76,4.52 -9.9,9.09 -15.38,13.77 -5.31,4.84 -10.84,9.74 -16.15,14.67l0 -47.07c47.68,-40.07 105.43,-110.42 173.23,-211.08 -6.98,-0.39 -13.3,-0.64 -19.16,-0.8 -6.01,-0.33 -12.92,-0.33 -21.07,-0.33 -26.85,0 -46.88,1.67 -60.22,5.48 -5.28,1.33 -10.46,2.71 -15.36,4.35 -4.59,1.66 -7.83,2.3 -9.74,2.3 -1.89,0 -2.85,-1.34 -2.85,-3.94 0,-15.06 9.33,-37.47 27.94,-67.5 14.98,-25.42 29.24,-44.28 42.7,-56.62 13.46,-12.38 29.78,-20.69 49.12,-25.05 19.33,-4.35 46.64,-6.4 81.51,-6.4zm620.41 354.05l0 43.08c-39.51,40.32 -73.73,73.35 -102.63,99.24 -28.85,25.59 -54.27,45 -75.73,58.17 -21.62,13.38 -40.07,19.87 -54.99,19.87 -35.63,0 -53.29,-20.99 -53.29,-62.65 0,-33.83 10.92,-72.73 33.04,-117.23 22.17,-44.28 53.77,-96.4 95.35,-156.53 -20.52,11.41 -39.93,24.47 -57.97,39.14 -18.23,14.98 -34.55,30.33 -48.56,46.59 -14.17,16.06 -26.08,29.78 -35.58,41.33 -29.62,33.04 -57.97,67 -85.31,101.87 -27.15,34.75 -45.62,57.34 -55.12,67.96 -9.66,10.3 -18.77,15.76 -27.32,15.76 -35.58,0 -53.4,-43.82 -53.4,-131.18 0,-28.57 4.51,-60.27 13.09,-94.8 8.61,-34.47 31.75,-80.3 69.38,-137.19 79.76,-119.22 147.96,-216.62 204.58,-292.28 56.63,-75.73 103.68,-132.99 140.9,-171.88 37.3,-38.98 62.44,-58.06 75.28,-57.18 15.81,1.51 28.65,4.74 38.4,9.67 9.74,4.81 14.67,10.67 14.67,16.94 0,11.41 -7.78,30.32 -23.54,56.38 -15.6,26.08 -42.61,67.11 -80.79,122.53 -41.42,58.71 -70.8,99.98 -88.08,123.9 -17.19,23.76 -43.16,57.73 -77.54,101.62 -34.22,43.96 -65.74,82.85 -94.1,117.39 -28.44,34.22 -61,71.44 -97.44,111.5l0 82.01c61.14,-68.05 114,-123.41 158.42,-166.52 44.53,-43.32 82.46,-75.95 113.43,-98.04 30.82,-22.2 53.65,-33.03 68.28,-33.03 13.46,0 26.3,8 38.27,24.17 11.79,16.06 17.65,29.62 17.65,39.82 0,4.6 -2.38,10.24 -6.81,17.27 -32.79,39.06 -58.84,71.46 -78.25,97.11 -19.32,25.83 -34.21,48.64 -44.66,68.91 -10.54,20.2 -15.6,37.69 -15.6,52.11 0,21.46 10.29,32.17 30.65,32.17 22.01,0 70.49,-29.32 145.33,-88zm631.7 -354.05l29.45 0c24.17,-43.33 45.8,-73.82 65.37,-91.81 19.57,-17.9 41.98,-27.01 66.83,-27.01 25.29,0 37.8,5.86 37.8,17.02 0,5.62 -9.83,20.21 -29.32,44.5 -19.65,23.92 -34.46,44.28 -44.5,60.77 15.6,1.58 29.38,3.26 41.17,4.68 12.13,1.42 21.71,2.6 28.52,3.48 -25.89,48.17 -58.52,97.6 -97.65,147.88 -12.76,-0.94 -23.51,-1.59 -32.17,-2.3 -8.53,-0.72 -17.27,-1.34 -26.3,-2.05 -8.78,-0.8 -19.57,-1.51 -32.37,-2.3 -24.5,39.51 -45.16,74.86 -61.72,106.14 -16.56,30.98 -29.32,59.56 -38.18,85.56 -8.95,26.05 -13.3,50.52 -13.3,73.73 0,31.53 12.59,47.13 37.47,47.13 17.27,0 40.06,-9.36 68.11,-27.81 27.95,-18.36 65.2,-46.5 112.25,-84.74l0 45.6c-123.03,133.32 -213.65,199.93 -272.33,199.93 -20.52,0 -37.05,-7.94 -49.43,-24 -12.51,-15.93 -18.85,-36.27 -18.85,-61.31 0,-16.72 3.5,-36.76 10.54,-60.05 7.22,-23.04 19.73,-58.22 37.96,-105.1 -6.27,5.56 -12.37,10.78 -18.23,16.15 -5.56,5.09 -10.86,9.91 -15.59,14.12 -4.76,4.52 -9.99,9.09 -15.39,13.77 -5.31,4.84 -10.83,9.74 -16.23,14.67l0 -47.07c47.76,-40.07 105.52,-110.42 173.3,-211.08 -6.97,-0.39 -13.29,-0.64 -19.16,-0.8 -6.01,-0.33 -13,-0.33 -21.15,-0.33 -26.77,0 -46.8,1.67 -60.11,5.48 -5.39,1.33 -10.46,2.71 -15.38,4.35 -4.6,1.66 -7.83,2.3 -9.75,2.3 -1.88,0 -2.85,-1.34 -2.85,-3.94 0,-15.06 9.34,-37.47 27.97,-67.5 14.98,-25.42 29.15,-44.28 42.67,-56.62 13.46,-12.38 29.73,-20.69 49.04,-25.05 19.41,-4.35 46.72,-6.4 81.51,-6.4zm548.65 352.87l0 45.6c-30.16,27.35 -54.08,45.49 -72.31,54.57 -18.14,9.12 -44.5,12.76 -78.5,10.87 -59.09,70.17 -111.04,105.18 -156.2,105.18 -25.42,0 -48.78,-8.4 -69.46,-25.26 -21,-16.94 -37.69,-39.77 -50.06,-68.92 -12.51,-29.15 -18.92,-61.77 -18.92,-97.65 0,-29.07 9.67,-61.39 28.91,-96.8 19.32,-35.47 44.5,-68.5 75.32,-99.24 30.4,-30.82 63.28,-55.51 98.45,-74.28 34.94,-18.86 67.24,-28.36 97.43,-28.36 21.29,0 38.18,3.24 50.53,9.67 12.2,6.73 18.3,15.89 18.3,27.77 0,9.03 -4.98,19.57 -15.59,31.37 17.27,3.58 29.23,9.61 35.47,18.22 6.26,8.33 9.49,23.76 9.49,45.96 0,21.84 -5.14,49.26 -15.36,82.6 -10.21,33.11 -24.22,64.23 -41.98,93.47l12.38 12.29 10.29 0c7.69,0 15.36,-2.16 22.88,-5.81 7.44,-3.94 14.09,-8 19.98,-12.35 6.07,-4.21 18.83,-14.01 38.95,-28.9zm-140.51 -179.57c-37.69,22.79 -70.18,43.32 -96.94,61.69 -26.77,18.39 -49.57,37.01 -68.18,55.92 -18.63,18.85 -31.22,38.04 -37.46,57.03 -11.41,51.11 -17.05,78.5 -17.05,82.68 0,30.11 20.9,45 62.67,45 19.55,0 52.42,-16.7 98.21,-50.53 -7.61,-21.46 -11.55,-41.98 -11.55,-61.55 0,-28.66 5.86,-57.75 17.66,-87.61 11.96,-29.78 29.4,-63.98 52.66,-102.63zm529.03 199.74l0 -16.15c117.39,-123.71 198.18,-210.69 242.23,-260.28 10.07,-55.84 34.21,-83.78 72.39,-83.78 9.53,0 19.82,2.85 30.57,8.16l4.21 12.97c-1.91,5.48 -2.84,13.3 -2.84,23.13 0,8.81 3.23,24.72 10.04,48.25 6.51,23.43 11.58,43 15.39,59.09 3.48,15.82 5.31,33.81 5.31,53.78 0,30.02 -6.81,58.92 -20.52,86.41 -13.46,27.55 -33.34,53.77 -59.39,79.21 -25.84,25.09 -59.09,51.02 -100.15,77.37 16.34,2.72 29.4,4.22 38.9,4.22 18.63,0 38.67,-4.68 60.3,-14.1 21.7,-9.27 43.87,-21.87 66.2,-37.38 22.67,-15.84 48.89,-36.13 78.74,-61.06l0 45.6c-58.3,56.87 -110.19,99.98 -156.04,129.35 -46.12,29.32 -85.8,43.96 -118.89,43.96 -42.78,0 -82.46,-18.11 -118.72,-54.49 -21.49,-21.84 -34.7,-42.83 -39.85,-62.87 -5.4,-20.07 -7.86,-46.99 -7.86,-81.37zm254.59 -104.31l-12.37 -99.7c-28.27,31.92 -88.33,93.22 -180.83,183.51 27.34,6.18 45.95,14.01 56,24.09 9.91,10.04 24.17,29.29 42.39,57.97 30.96,-12.76 54.71,-30.02 71.27,-52.19 16.48,-22.09 24.89,-52.11 24.89,-90.29 0,-4.77 0,-8.87 -0.25,-12.38 -0.17,-3.8 -0.72,-7.19 -1.1,-11zm505.57 38.98c-65.9,87.36 -116.26,149.31 -150.48,186.31 -34.24,36.81 -62.35,55.2 -84.3,55.2 -17.19,0 -33.09,-7.22 -47.76,-21.4 -14.4,-14.4 -25.81,-33.8 -33.75,-58.05 -7.91,-24.39 -11.88,-50.53 -11.88,-78.25 0,-18.14 1.59,-34.46 5.15,-49.12 3.51,-14.4 9.74,-30.49 19.35,-47.98 9.58,-17.69 22.34,-36.52 37.93,-57.04 15.68,-20.5 34.92,-43.88 57.51,-69.71 13.85,-15.77 25.26,-29.29 34.54,-40.24 9.34,-11 18.45,-18.19 27.24,-22.09 8.87,-3.96 23.29,-5.86 43.25,-5.86 14.67,0 28.51,1.89 41.66,5.86 13.4,3.89 19.9,7.83 19.9,11.8 0,8.16 -6.82,23.12 -20.04,44.5 -13.55,21.24 -35.17,47.29 -65.03,78.03 -29.79,30.73 -64.02,60.84 -103.13,90.37 -8.65,27.02 -13.01,47.21 -13.01,61.47 0,19.57 7.45,29.37 22.5,29.37 5.48,0 14.43,-4.65 27.32,-14.01 12.54,-9.33 34.25,-27.16 64.57,-53.78 30.02,-26.77 57.2,-50.3 81.18,-70.64 17.97,-15.52 38.51,-38.59 62.02,-69.38 23.28,-30.43 42.39,-53.77 56.87,-69.16 33.66,-35.33 56.79,-58.47 68.83,-69.14 12.46,-10.77 24.25,-16.09 35.64,-16.09 11.02,0 18.22,3.57 22.11,10.24 3.8,6.79 5.86,20.75 5.86,41.75 0,9.49 -0.96,17.19 -2.84,23.04 -1.75,6.01 -5.56,13.46 -11.09,22.79 -5.86,9.28 -17.27,26.55 -34.54,51.48 -17.27,25.2 -37.63,54.74 -61.39,88.73 -12.92,18.2 -23.75,38.18 -33.33,59.64 -9.58,21.62 -14.51,38.02 -14.51,48.94 0,23.46 9.36,35.42 27.97,35.42 15.68,0 33.58,-6.35 54.08,-19.11 20.28,-12.81 51.72,-35.63 94.1,-69.05l0 45.79c-53.38,49.18 -92.76,84.9 -118.11,107.07 -25.42,22.42 -47.59,39.23 -66.2,50.64 -18.61,11.38 -36.27,17.24 -53.24,17.24 -38.18,0 -57.34,-22.96 -57.34,-68.25 0,-17.61 5.56,-40.81 16.95,-70.18 11.49,-29.32 29.78,-71.68 55.45,-127.14zm627.34 47.68l0 45.63c-48.73,47.84 -88.33,84.84 -119.14,111.44 -30.66,26.3 -59.34,46.72 -85.86,61.22 -26.77,14.65 -52.69,21.87 -78.25,21.87 -24.96,0 -48.09,-9.74 -69,-29.56 -20.9,-19.87 -37.22,-45.93 -49.09,-77.78 -11.88,-32.16 -17.77,-66.12 -17.77,-102.09 0,-30.98 6.81,-58.46 20.52,-82.59 13.79,-24.01 40.07,-55.29 79.21,-93.47 46.34,-45.41 89.42,-80.58 129.19,-105.27 39.93,-24.88 71.05,-37.24 94.02,-37.24 16.17,0 30.18,5.56 41.6,16.97 11.39,11.38 16.94,25.97 16.94,43.08 0,14.51 -7.36,35.17 -22.5,61.94 -14.97,27.09 -31.69,50.38 -50.52,70.09 -18.61,19.9 -33.37,29.65 -44.21,29.65 -11.96,0 -17.74,-6.27 -17.74,-19.02 0.47,-3.8 0.63,-7.04 0.85,-10.3 0.33,-3.34 0.5,-6.34 0.5,-9.58 0,-5.39 -2.08,-8.64 -5.86,-9.36 -3.97,-0.38 -8.57,1.2 -13.88,5.15 -45.79,31.94 -76.75,54.35 -93.69,67.41 -16.8,12.76 -30.02,26.06 -39.85,38.98 -9.74,13.46 -14.67,27.18 -14.67,41.82 0,26.77 8.65,48.39 25.84,65.33 17.49,16.89 39.9,25.29 67.55,25.29 28.68,0 63.15,-11.03 103.46,-33.12 40.31,-22.17 87.77,-54.32 142.35,-96.48zm408.05 0l0 45.63c-48.7,47.84 -88.3,84.84 -119.11,111.44 -30.66,26.3 -59.34,46.72 -85.86,61.22 -26.77,14.65 -52.69,21.87 -78.28,21.87 -24.93,0 -48.06,-9.74 -68.97,-29.56 -20.9,-19.87 -37.21,-45.93 -49.18,-77.78 -11.82,-32.16 -17.68,-66.12 -17.68,-102.09 0,-30.98 6.81,-58.46 20.52,-82.59 13.69,-24.01 40.07,-55.29 79.21,-93.47 46.34,-45.41 89.42,-80.58 129.19,-105.27 39.9,-24.88 71.05,-37.24 93.85,-37.24 16.31,0 30.35,5.56 41.75,16.97 11.41,11.38 16.97,25.97 16.97,43.08 0,14.51 -7.37,35.17 -22.51,61.94 -14.89,27.09 -31.69,50.38 -50.61,70.09 -18.63,19.9 -33.28,29.65 -44.12,29.65 -11.96,0 -17.77,-6.27 -17.77,-19.02 0.5,-3.8 0.66,-7.04 0.88,-10.3 0.33,-3.34 0.5,-6.34 0.5,-9.58 0,-5.39 -2.08,-8.64 -5.81,-9.36 -4.02,-0.38 -8.62,1.2 -13.93,5.15 -45.71,31.94 -76.74,54.35 -93.72,67.41 -16.77,12.76 -29.99,26.06 -39.81,38.98 -9.83,13.46 -14.68,27.18 -14.68,41.82 0,26.77 8.65,48.39 25.92,65.33 17.41,16.89 39.82,25.29 67.47,25.29 28.68,0 63.06,-11.03 103.46,-33.12 40.31,-22.17 87.75,-54.32 142.32,-96.48zm106.38 23.37l0 16.94c0,26.77 6.48,47.76 19.79,62.66 13.09,15.22 30.6,22.58 51.64,22.58 22.42,0 45.49,-5.06 69.55,-15.52 23.79,-10.54 47.46,-24.56 71.05,-41.66 23.76,-17.28 52.61,-40.65 86.57,-69.72l0 41.66c-51.24,61.72 -99.48,109.32 -144.38,142.43 -45.15,32.71 -90.78,49.26 -137.29,49.26 -40.48,0 -72.39,-15.62 -96.15,-46.99 -23.54,-31.5 -35.33,-74.28 -35.33,-129.1 0,-47.76 11.16,-91.09 33.28,-129.98 22.34,-38.82 58.68,-79.84 109.23,-122.92 34.52,-29.65 68.89,-51.98 102.96,-66.95 33.97,-15.11 64.54,-22.56 91.34,-22.56 21.38,0 38.4,4.9 50.77,14.65 12.51,9.82 18.83,24.47 18.83,44.04 0,28.68 -10.68,57.12 -32.16,85.47 -21.13,28.49 -53.78,56.63 -97.82,84.83 -43.71,28.05 -97.82,54.65 -161.89,80.87zm6.81 -44.53c40.95,-15.89 75.87,-35.63 104.94,-59.39 29.23,-23.53 50.63,-46.17 64.56,-67.79 13.71,-21.71 20.75,-37.47 20.75,-47.54 0,-10.46 -4.6,-15.6 -14.18,-15.6 -8.45,0 -21.7,5.15 -40.15,15.6 -18.31,10.45 -36.93,24.33 -55.84,41.02 -18.85,16.73 -35.58,36.52 -50.77,59.42 -14.89,22.8 -24.72,47.52 -29.32,74.28zm289.19 38.82l0 -16.15c117.48,-123.71 198.19,-210.69 242.31,-260.28 9.97,-55.84 34.22,-83.78 72.48,-83.78 9.5,0 19.79,2.85 30.49,8.16l4.1 12.97c-1.8,5.48 -2.68,13.3 -2.68,23.13 0,8.81 3.26,24.72 9.96,48.25 6.43,23.43 11.58,43 15.39,59.09 3.56,15.82 5.31,33.81 5.31,53.78 0,30.02 -6.65,58.92 -20.44,86.41 -13.55,27.55 -33.34,53.77 -59.39,79.21 -25.84,25.09 -59.09,51.02 -100.12,77.37 16.23,2.72 29.29,4.22 38.81,4.22 18.61,0 38.73,-4.68 60.35,-14.1 21.71,-9.27 43.72,-21.87 66.13,-37.38 22.58,-15.84 48.88,-36.13 78.74,-61.06l0 45.6c-58.22,56.87 -110.11,99.98 -156.04,129.35 -46.17,29.32 -85.69,43.96 -118.73,43.96 -42.94,0 -82.46,-18.11 -118.89,-54.49 -21.37,-21.84 -34.62,-42.83 -39.76,-62.87 -5.4,-20.07 -8,-46.99 -8,-81.37zm254.65 -104.31l-12.35 -99.7c-28.22,31.92 -88.24,93.22 -180.77,183.51 27.26,6.18 45.87,14.01 55.95,24.09 9.96,10.04 24.22,29.29 42.36,57.97 30.96,-12.76 54.74,-30.02 71.21,-52.19 16.54,-22.09 25.03,-52.11 25.03,-90.29 0,-4.77 0,-8.87 -0.31,-12.38 -0.24,-3.8 -0.66,-7.19 -1.12,-11zm181.37 104.31l0 -16.15c117.39,-123.71 198.19,-210.69 242.23,-260.28 10.07,-55.84 34.22,-83.78 72.56,-83.78 9.5,0 19.82,2.85 30.41,8.16l4.21 12.97c-1.92,5.48 -2.71,13.3 -2.71,23.13 0,8.81 3.26,24.72 9.91,48.25 6.65,23.43 11.63,43 15.36,59.09 3.58,15.82 5.39,33.81 5.39,53.78 0,30.02 -6.73,58.92 -20.5,86.41 -13.46,27.55 -33.28,53.77 -59.33,79.21 -25.81,25.09 -59.25,51.02 -100.12,77.37 16.15,2.72 29.32,4.22 38.81,4.22 18.61,0 38.73,-4.68 60.36,-14.1 21.62,-9.27 43.74,-21.87 66.15,-37.38 22.58,-15.84 48.94,-36.13 78.79,-61.06l0 45.6c-58.3,56.87 -110.33,99.98 -156.12,129.35 -46.17,29.32 -85.69,43.96 -118.81,43.96 -42.83,0 -82.44,-18.11 -118.81,-54.49 -21.37,-21.84 -34.67,-42.83 -39.73,-62.87 -5.4,-20.07 -8.03,-46.99 -8.03,-81.37zm254.59 -104.31l-12.37 -99.7c-28.11,31.92 -88.16,93.22 -180.66,183.51 27.18,6.18 45.87,14.01 55.83,24.09 10.08,10.04 24.34,29.29 42.37,57.97 30.98,-12.76 54.74,-30.02 71.3,-52.19 16.55,-22.09 25.04,-52.11 25.04,-90.29 0,-4.77 0,-8.87 -0.32,-12.38 -0.25,-3.8 -0.64,-7.19 -1.19,-11z"/>
   <polygon class="fil8" points="9326.49,7447.9 24345.79,7447.9 24345.79,5986.83 9326.49,5986.83 "/>
   <path class="fil9" d="M9882.45 7143.03l0 -849.82 133.79 0 0 377.97 450.75 -377.97 175.68 0 -357.24 302.4 411.01 547.42 -149.46 0 -355.09 -469.79 -175.65 148.67 0 321.13 -133.79 0zm1380.5 -97.68c113.66,0 206.72,-30.65 278.49,-92.34 71.84,-61.63 107.56,-139.88 107.56,-234.86 0,-94.32 -36.1,-172.68 -108.2,-234.62 -72.23,-61.61 -164.82,-92.59 -277.86,-92.59 -112.95,0 -205.21,30.66 -276.76,92.29 -71.51,61.61 -107.23,139.85 -107.23,234.92 0,94.97 35.72,173.23 107.23,234.86 71.55,61.69 163.81,92.34 276.76,92.34zm0 124.62c-151.44,0 -276.13,-42.95 -373.87,-128.72 -97.66,-85.78 -146.68,-193.34 -146.68,-323.1 0,-130.36 48.69,-237.92 146.05,-322.69 97.35,-84.9 222.27,-127.05 374.49,-127.05 153.52,0 279.2,42.14 376.55,126.58 97.35,84.44 146.07,192 146.07,323.16 0,130.38 -49.04,238.33 -146.7,323.73 -97.74,85.47 -222.99,128.09 -375.93,128.09zm941.63 -26.94l0 -733.07 -359.06 0 0 -118.72 852.12 0 0 118.72 -360.24 0 0 733.07 -132.82 0zm697.33 -329.28l332.92 0 -165.39 -326.17 -167.53 326.17zm-308.52 329.28l433.13 -851.8 83.73 0 436.82 851.8 -142.65 0 -110.66 -216.57 -449.74 0 -109.95 216.57 -140.68 0zm2004.29 -1002.68l65.66 76.99c-70.43,60.27 -122.21,130.69 -155.16,211.41 -33.03,80.3 -49.34,176.06 -49.34,287.44 0,111.61 16.31,207.93 49.34,288.94 32.95,81.43 84.74,151.84 155.16,211.49l-65.66 77.95c-94.02,-85.78 -162.77,-175.37 -206.26,-268.28 -43.66,-93.31 -65.42,-196.52 -65.42,-310.1 0,-113.12 21.76,-216.33 65.42,-308.93 43.49,-92.89 112.24,-181.76 206.26,-266.9zm449.66 506.03l452.91 0c45.92,0 80.95,-9.96 105.18,-30.07 24.17,-20.07 36.37,-48.64 36.37,-85.81 0,-37.05 -12.2,-65.66 -36.37,-85.36 -24.23,-19.49 -59.26,-29.31 -105.18,-29.31l-452.91 0 0 230.56zm0 124.54l0 372.11 -133.71 0 0 -849.82 586.63 0c87.12,0 155.24,21.15 204.29,62.98 49.34,41.98 73.81,99.87 73.81,174.31 0,60.61 -19.32,113.13 -58.13,156.99 -38.82,44.21 -89.62,71.55 -152.26,81.35l236.28 374.19 -144.61 0 -241.13 -372.11 -371.16 0zm1081.35 42.83l332.99 0 -165.46 -326.17 -167.53 326.17zm-308.43 329.28l433.02 -851.8 83.72 0 436.91 851.8 -142.73 0 -110.66 -216.57 -449.66 0 -110 216.57 -140.6 0zm984.63 -363.88l132.74 0 0 90.84c0,60.97 19.65,105.81 58.92,134.42 39.14,28.68 100.78,42.94 184.47,42.94 84.44,0 142.27,-17.27 173.26,-51.73 31.45,-34.7 47.05,-100.44 47.05,-197.47l0 -504.94 132.73 0 0 547.89c0,117.39 -28.6,201.83 -85.47,252.59 -56.84,50.77 -151.11,76.28 -283.55,76.28 -121.9,0 -212.11,-23.13 -271.36,-69.8 -59.26,-46.66 -88.79,-117.55 -88.79,-212.52l0 -108.5zm1118.33 34.6l332.92 0 -165.39 -326.17 -167.53 326.17zm-308.52 329.28l433.1 -851.8 83.73 0 436.84 851.8 -142.73 0 -110.57 -216.57 -449.74 0 -109.95 216.57 -140.68 0zm1007.45 -108.6l64.7 -111.62c58.63,39.15 122.54,69.8 191.7,91.59 69.06,22 135.04,32.95 198.49,32.95 75.56,0 136.88,-15.31 183.43,-46.26 46.66,-30.98 69.79,-70.88 69.79,-119.22 0,-48.64 -21.45,-84.74 -63.9,-108.28 -42.61,-23.76 -109.73,-36.76 -201.28,-39.43 -155.24,-1.97 -261.47,-20.13 -319.29,-53.78 -57.89,-34 -86.88,-90.21 -86.88,-168.57 0,-73.18 31.67,-132.11 95.36,-176.61 63.28,-44.67 148.75,-66.78 255.69,-66.78 73.18,0 143.99,10.23 213.07,30.98 68.81,20.74 135.2,51.39 198.87,91.88l-66.75 110.66c-53.16,-35.74 -110.28,-63.68 -171.58,-83.34 -60.9,-19.49 -119.53,-29.31 -175.36,-29.31 -64.71,0 -116.35,11.16 -155.66,33.66 -39.11,22.82 -58.75,52.44 -58.75,88.87 0,37.88 19.65,64.73 59.25,80.66 39.43,15.98 108.19,23.84 205.85,23.84 135.83,0 237.95,22.79 307.16,68.75 69.08,46.09 103.77,114.05 103.77,204.67 0,80.38 -35.01,147.16 -105.19,200.45 -70.09,53.16 -161.02,79.79 -272.63,79.79 -82.76,0 -164.51,-11.96 -246.24,-35.5 -81.29,-23.45 -155.9,-56.79 -223.61,-100.03zm1286.95 108.6l0 -733.07 -359.2 0 0 -118.72 852.12 0 0 118.72 -360.15 0 0 733.07 -132.77 0zm758.2 -395.9l0 395.9 -133.87 0 0 -851.8 133.87 0 0 331.22 598.08 0 0 -331.22 132.83 0 0 851.8 -132.83 0 0 -395.9 -598.08 0zm1165.92 66.62l333.01 0 -165.48 -326.17 -167.53 326.17zm-308.35 329.28l433.02 -851.8 83.81 0 436.76 851.8 -142.65 0 -110.65 -216.57 -449.75 0 -110.02 216.57 -140.52 0zm1082.28 0l0 -851.8 69.8 0 541.61 598.5 0 -598.5 130.77 0 0 851.8 -69.76 0 -540.69 -596.52 0 596.52 -131.74 0zm1058.06 -1002.68c93.63,85.14 162.38,174.01 206.04,266.9 43.55,92.59 65.34,195.81 65.34,308.93 0,113.58 -21.79,216.79 -65.34,310.1 -43.66,92.91 -112.41,182.5 -206.04,268.28l-65.96 -77.95c70.49,-59.64 122.21,-130.06 155.24,-211.49 32.96,-81.01 49.43,-177.33 49.43,-288.94 0,-111.37 -16.47,-207.13 -49.43,-287.44 -33.03,-80.71 -84.76,-151.14 -155.24,-211.41l65.96 -76.99z"/>
   <path class="fil10" d="M25857.4 121.57c302.41,0 501.91,212 501.91,514.39 0,302.4 -199.5,514.39 -501.91,514.39 -305.5,0 -498.78,-211.98 -498.78,-514.39 0,-302.38 193.28,-514.39 498.78,-514.39zm0 1153.47c367.85,0 629.72,-271.21 629.72,-639.09 0,-367.85 -261.87,-635.96 -629.72,-635.96 -370.97,0 -632.84,268.11 -632.84,635.96 0,367.88 261.87,639.09 632.84,639.09zm280.57 -770.02c0,-127.83 -93.52,-208.87 -233.79,-208.87l-299.29 0 0 670.26 162.11 0 0 -249.39 52.99 0 149.63 249.39 196.41 -3.12 -174.57 -258.75c90.4,-28.06 146.51,-99.76 146.51,-199.53zm-243.15 -62.35c43.63,0 81.05,18.72 81.05,68.58 0,49.9 -37.42,71.71 -81.05,71.71l-127.82 0 0 -140.29 127.82 0z"/>
  </g>
 </g>
</svg>
